<svg width="110" height="110" viewBox="0 0 110 110" fill="none" xmlns="http://www.w3.org/2000/svg">
<g filter="url(#filter0_bd_3158_13172)">
<circle cx="55" cy="44" r="32" fill="black" fill-opacity="0.25" shape-rendering="crispEdges"/>
<circle cx="55" cy="44" r="31.5" stroke="white" stroke-opacity="0.3" shape-rendering="crispEdges"/>
</g>
<path d="M47.8398 44.6738C47.7109 44.8672 47.6715 45.0534 47.7217 45.2324C47.7718 45.4115 47.9186 45.501 48.1621 45.501H49.2578C49.4297 46.4678 49.7878 47.32 50.332 48.0576C50.8763 48.7881 51.5566 49.361 52.373 49.7764C53.1966 50.1846 54.1025 50.3887 55.0908 50.3887C55.7354 50.3887 56.3656 50.2812 56.9814 50.0664C57.6045 49.8516 58.1452 49.5579 58.6035 49.1855C58.847 48.9922 58.9938 48.7738 59.0439 48.5303C59.1012 48.2796 59.0368 48.0576 58.8506 47.8643C58.6715 47.6709 58.471 47.5814 58.249 47.5957C58.027 47.61 57.8122 47.6924 57.6045 47.8428C57.2249 48.1364 56.8346 48.362 56.4336 48.5195C56.0397 48.6771 55.5921 48.7559 55.0908 48.7559C54.3962 48.7559 53.7552 48.6126 53.168 48.3262C52.5807 48.0397 52.0794 47.653 51.6641 47.166C51.2559 46.679 50.973 46.124 50.8154 45.501H51.9219C52.1654 45.501 52.3158 45.4115 52.373 45.2324C52.4303 45.0462 52.391 44.86 52.2549 44.6738L50.5576 42.332C50.4215 42.1387 50.2497 42.0384 50.042 42.0312C49.8343 42.0241 49.6553 42.1243 49.5049 42.332L47.8398 44.6738ZM51.3096 41.2471C51.4886 41.4404 51.6891 41.5335 51.9111 41.5264C52.1331 41.512 52.3444 41.4261 52.5449 41.2686C52.9173 40.9678 53.304 40.7422 53.7051 40.5918C54.1061 40.4414 54.5609 40.3662 55.0693 40.3662C55.7568 40.3662 56.3942 40.5094 56.9814 40.7959C57.5687 41.0752 58.0664 41.4619 58.4746 41.9561C58.89 42.443 59.1764 42.9945 59.334 43.6104H58.1631C57.9268 43.6104 57.7799 43.7035 57.7227 43.8896C57.6654 44.0687 57.7048 44.2513 57.8408 44.4375L59.5273 46.79C59.6706 46.9834 59.846 47.0837 60.0537 47.0908C60.2614 47.098 60.4404 46.9977 60.5908 46.79L62.2559 44.4375C62.3848 44.2513 62.4206 44.0687 62.3633 43.8896C62.3132 43.7035 62.1699 43.6104 61.9336 43.6104H60.8916C60.7197 42.6507 60.3617 41.8057 59.8174 41.0752C59.2731 40.3376 58.5928 39.7611 57.7764 39.3457C56.96 38.9303 56.0576 38.7227 55.0693 38.7227C54.4176 38.7227 53.7803 38.8301 53.1572 39.0449C52.5413 39.2598 52.0078 39.557 51.5566 39.9365C51.3132 40.1299 51.1628 40.3483 51.1055 40.5918C51.0553 40.8353 51.1234 41.0537 51.3096 41.2471ZM45.251 54.1484H64.8877C66.0049 54.1484 66.8464 53.8691 67.4121 53.3105C67.9779 52.7591 68.2607 51.9284 68.2607 50.8184V39.5713C68.2607 38.4684 67.9779 37.6413 67.4121 37.0898C66.8464 36.5312 66.0049 36.252 64.8877 36.252H61.8154C61.529 36.252 61.2998 36.2305 61.1279 36.1875C60.9561 36.1445 60.8021 36.0729 60.666 35.9727C60.5371 35.8652 60.3903 35.722 60.2256 35.543L59.3662 34.5762C59.1012 34.2826 58.8076 34.057 58.4854 33.8994C58.1631 33.7419 57.7262 33.6631 57.1748 33.6631H52.8887C52.3372 33.6631 51.9004 33.7419 51.5781 33.8994C51.263 34.057 50.9694 34.2826 50.6973 34.5762L49.8379 35.543C49.6016 35.8079 49.3831 35.9941 49.1826 36.1016C48.9821 36.2018 48.6706 36.252 48.248 36.252H45.251C44.1266 36.252 43.2816 36.5312 42.7158 37.0898C42.1572 37.6413 41.8779 38.4684 41.8779 39.5713V50.8184C41.8779 51.9284 42.1572 52.7591 42.7158 53.3105C43.2816 53.8691 44.1266 54.1484 45.251 54.1484ZM45.2725 52.4189C44.7425 52.4189 44.3307 52.2793 44.0371 52C43.7507 51.7135 43.6074 51.291 43.6074 50.7324V39.668C43.6074 39.1094 43.7507 38.6904 44.0371 38.4111C44.3307 38.1247 44.7425 37.9814 45.2725 37.9814H48.6777C49.1647 37.9814 49.555 37.9277 49.8486 37.8203C50.1494 37.7057 50.4359 37.498 50.708 37.1973L51.5459 36.252C51.8538 35.9082 52.126 35.679 52.3623 35.5645C52.5986 35.4499 52.9531 35.3926 53.4258 35.3926H56.6377C57.1104 35.3926 57.4648 35.4499 57.7012 35.5645C57.9375 35.679 58.2096 35.9082 58.5176 36.252L59.3555 37.1973C59.6276 37.498 59.9105 37.7057 60.2041 37.8203C60.5049 37.9277 60.8988 37.9814 61.3857 37.9814H64.8555C65.3854 37.9814 65.7972 38.1247 66.0908 38.4111C66.3844 38.6904 66.5312 39.1094 66.5312 39.668V50.7324C66.5312 51.291 66.3844 51.7135 66.0908 52C65.7972 52.2793 65.3854 52.4189 64.8555 52.4189H45.2725Z" fill="white"/>
<defs>
<filter id="filter0_bd_3158_13172" x="0" y="0" width="110" height="110" filterUnits="userSpaceOnUse" color-interpolation-filters="sRGB">
<feFlood flood-opacity="0" result="BackgroundImageFix"/>
<feGaussianBlur in="BackgroundImage" stdDeviation="6"/>
<feComposite in2="SourceAlpha" operator="in" result="effect1_backgroundBlur_3158_13172"/>
<feColorMatrix in="SourceAlpha" type="matrix" values="0 0 0 0 0 0 0 0 0 0 0 0 0 0 0 0 0 0 127 0" result="hardAlpha"/>
<feMorphology radius="1" operator="erode" in="SourceAlpha" result="effect2_dropShadow_3158_13172"/>
<feOffset dy="11"/>
<feGaussianBlur stdDeviation="12"/>
<feComposite in2="hardAlpha" operator="out"/>
<feColorMatrix type="matrix" values="0 0 0 0 0 0 0 0 0 0 0 0 0 0 0 0 0 0 0.25 0"/>
<feBlend mode="normal" in2="effect1_backgroundBlur_3158_13172" result="effect2_dropShadow_3158_13172"/>
<feBlend mode="normal" in="SourceGraphic" in2="effect2_dropShadow_3158_13172" result="shape"/>
</filter>
</defs>
</svg>
