<svg width="30" height="30" viewBox="0 0 30 30" fill="none" xmlns="http://www.w3.org/2000/svg">
<rect width="30" height="30" rx="15" fill="#FAFAFA"/>
<path d="M10.2202 18.3811C9.92859 18.6727 9.92264 19.1905 10.2261 19.494C10.5356 19.7975 11.0533 19.7915 11.339 19.5059L14.8619 15.9829L18.3789 19.4999C18.6765 19.7975 19.1882 19.7975 19.4917 19.494C19.7952 19.1845 19.7952 18.6787 19.4977 18.3811L15.9807 14.8641L19.4977 11.3412C19.7952 11.0436 19.8012 10.5319 19.4917 10.2284C19.1882 9.92488 18.6765 9.92488 18.3789 10.2224L14.8619 13.7394L11.339 10.2224C11.0533 9.93083 10.5296 9.91892 10.2261 10.2284C9.92264 10.5319 9.92859 11.0556 10.2202 11.3412L13.7372 14.8641L10.2202 18.3811Z" fill="#3C3C43" fill-opacity="0.6"/>
</svg>
